<svg width="22" height="16" viewBox="0 0 22 16" fill="none" xmlns="http://www.w3.org/2000/svg">
<path d="M0.916664 0.916626H4.58333L7.04 13.1908C7.12382 13.6128 7.35341 13.9919 7.68858 14.2617C8.02375 14.5315 8.44314 14.6749 8.87333 14.6666H17.7833C18.2135 14.6749 18.6329 14.5315 18.9681 14.2617C19.3032 13.9919 19.5328 13.6128 19.6167 13.1908L21.0833 5.49996H5.5" fill="white"/>
<path d="M0.916664 0.916626H4.58333L7.04 13.1908C7.12382 13.6128 7.35341 13.9919 7.68858 14.2617C8.02375 14.5315 8.44314 14.6749 8.87333 14.6666H17.7833C18.2135 14.6749 18.6329 14.5315 18.9681 14.2617C19.3033 13.9919 19.5328 13.6128 19.6167 13.1908L21.0833 5.49996H5.5" stroke="white" stroke-width="2" stroke-linecap="round" stroke-linejoin="round"/>
</svg>
